<svg width="64" height="64" viewBox="0 0 64 64" fill="none" xmlns="http://www.w3.org/2000/svg">
  <rect width="64" height="64" rx="12" fill="#0a0a0a"/>
  <rect x="4" y="4" width="56" height="56" rx="10" fill="url(#gradient)"/>

  <!-- Car body -->
  <rect x="22" y="24" width="20" height="28" rx="3" fill="#ff1744"/>
  <rect x="24" y="26" width="16" height="9" rx="2" fill="#64b5f6"/>

  <!-- Wheels -->
  <circle cx="26" cy="31" r="3" fill="#212121"/>
  <circle cx="38" cy="31" r="3" fill="#212121"/>
  <circle cx="26" cy="47" r="3" fill="#212121"/>
  <circle cx="38" cy="47" r="3" fill="#212121"/>

  <!-- Headlights -->
  <rect x="24" y="49" width="5" height="1.5" rx="0.75" fill="#ffeb3b"/>
  <rect x="35" y="49" width="5" height="1.5" rx="0.75" fill="#ffeb3b"/>

  <!-- Road lines -->
  <rect x="13" y="10" width="2.5" height="10" rx="1" fill="#ffeb3b" opacity="0.6"/>
  <rect x="48.5" y="10" width="2.5" height="10" rx="1" fill="#ffeb3b" opacity="0.6"/>
  <rect x="13" y="44" width="2.5" height="10" rx="1" fill="#ffeb3b" opacity="0.6"/>
  <rect x="48.5" y="44" width="2.5" height="10" rx="1" fill="#ffeb3b" opacity="0.6"/>

  <defs>
    <linearGradient id="gradient" x1="32" y1="4" x2="32" y2="60" gradientUnits="userSpaceOnUse">
      <stop stop-color="#2c2c2c"/>
      <stop offset="1" stop-color="#1a1a1a"/>
    </linearGradient>
  </defs>
</svg>
